<?xml version="1.0" encoding="UTF-8" standalone="no"?>
<svg
   xml:space="preserve"
   width="128"
   height="128"
   version="1.1"
   id="svg5"
   sodipodi:docname="tex06.svg"
   inkscape:version="1.4.2 (f4327f4, 2025-05-13)"
   xmlns:inkscape="http://www.inkscape.org/namespaces/inkscape"
   xmlns:sodipodi="http://sodipodi.sourceforge.net/DTD/sodipodi-0.dtd"
   xmlns="http://www.w3.org/2000/svg"
   xmlns:svg="http://www.w3.org/2000/svg"><defs
     id="defs5" /><sodipodi:namedview
     id="namedview5"
     pagecolor="#505050"
     bordercolor="#ffffff"
     borderopacity="1"
     inkscape:showpageshadow="0"
     inkscape:pageopacity="0"
     inkscape:pagecheckerboard="1"
     inkscape:deskcolor="#505050"
     showguides="true"
     inkscape:zoom="5.28"
     inkscape:cx="61.458333"
     inkscape:cy="73.768939"
     inkscape:window-width="1920"
     inkscape:window-height="1094"
     inkscape:window-x="-11"
     inkscape:window-y="-11"
     inkscape:window-maximized="1"
     inkscape:current-layer="svg5" /><path
     d="m 141.20439,73.667854 m 0,0 a 4.9965,4.9965 0 0 0 -9.99299,10e-4 4.9965,4.9965 0 1 0 9.99299,-10e-4"
     style="fill:#00ff00;fill-opacity:1;fill-rule:nonzero;stroke:none"
     id="path4-9"
     inkscape:label="Vert" /><path
     d="m 145.34154,113.95976 c -6.7e-4,-6.66 9.98932,-6.661 9.98999,-0.001 2.8e-4,2.75866 -2.23584,4.99522 -4.99449,4.9955 -2.75867,2.7e-4 -4.99523,-2.23584 -4.9955,-4.9945"
     style="fill:#ffffff;fill-opacity:1;fill-rule:nonzero;stroke:none"
     id="path5-4-8"
     inkscape:transform-center-x="-3.1640912"
     inkscape:transform-center-y="11.111111"
     sodipodi:nodetypes="cssc"
     inkscape:label="Blanc" /><path
     d="m 141.20937,42.960084 a 4.996,4.996 0 1 1 -9.99198,0 4.996,4.996 0 1 1 9.99198,0 m 0,0"
     style="fill:#808000;fill-opacity:1;fill-rule:nonzero;stroke:none"
     id="path7-3-3"
     inkscape:label="Jaune" /><path
     d="m 140.32175,100.33844 a 4.996,4.996 0 1 1 -9.99198,0 4.996,4.996 0 1 1 9.99198,0 m 0,0"
     style="fill:#ffff00;fill-opacity:1;fill-rule:nonzero;stroke:none"
     id="path7-3-3-2"
     inkscape:label="Jaune" /><path
     d="m 140.71066,30.392544 c 0,2.75922 -2.23679,4.996 -4.99601,4.996 -2.7592,0 -4.99598,-2.23678 -4.99598,-4.996 0,-6.661329 9.99199,-6.661329 9.99199,0"
     style="display:inline;fill:#800000;fill-opacity:1;fill-rule:nonzero;stroke:none"
     id="path5-7"
     inkscape:label="Rouge"
     sodipodi:nodetypes="cssc" /><path
     d="m 141.4906,87.463358 c 0,2.759217 -2.23679,4.995997 -4.99601,4.995997 -2.7592,0 -4.99598,-2.23678 -4.99598,-4.995997 0,-6.661329 9.99199,-6.661329 9.99199,0"
     style="display:inline;fill:#ff0000;fill-opacity:1;fill-rule:nonzero;stroke:none"
     id="path5-7-5"
     inkscape:label="Rouge"
     sodipodi:nodetypes="cssc" /><path
     d="m 141.19938,55.999649 a 5,5 0 1 1 -9.99999,0 5,5 0 0 1 9.99999,0 m 0,0"
     style="fill:#800080;fill-opacity:1;fill-rule:nonzero;stroke:none"
     id="path5-9-2" /><path
     d="m 140.9276,114.0385 a 5,5 0 1 1 -9.99999,0 5,5 0 0 1 9.99999,0 m 0,0"
     style="fill:#ff00ff;fill-opacity:1;fill-rule:nonzero;stroke:none"
     id="path5-9-2-1" /><path
     d="m 153.87437,42.987998 a 5,5 0 1 1 -9.99999,0 5,5 0 0 1 9.99999,0 m 0,0"
     style="fill:#ff8500;fill-opacity:1;fill-rule:nonzero;stroke:none"
     id="path5-9-9" /><path
     d="m 152.43428,29.421639 m 0,0 a 4.9965,4.9965 0 0 0 -9.993,0.001 4.9965,4.9965 0 1 0 9.993,-0.001"
     style="fill:#333333;fill-opacity:1;fill-rule:nonzero;stroke:none"
     id="path4-4" /><path
     d="m 140.57477,18.77616 m 0,0 a 4.9965,4.9965 0 0 0 -9.993,10e-4 4.9965,4.9965 0 1 0 9.993,-10e-4"
     style="fill:#008000;fill-opacity:1;fill-rule:nonzero;stroke:none"
     id="path4-1" /><path
     fill="none"
     d="m -177.57567,-3.3636364 h 128 V 124.63636 h -128 z"
     style="fill:#ffffff;fill-opacity:0;stroke:none"
     id="path1" /><path
     fill="none"
     d="m -157.57567,-11.363637 h 128 V 116.63636 h -128 z"
     style="fill:#ffffff;fill-opacity:0;stroke:none"
     id="path1-6" /><path
     fill="none"
     d="M -141.57567,132.63636 V 4.6363636 h 128 V 132.63636 Z"
     style="fill:#ffffff;fill-opacity:0;stroke:none"
     id="path1-8" /><path
     fill="none"
     d="m -208.58793,79.409092 h 128 V 207.40909 h -128 z"
     style="fill:#ffffff;fill-opacity:0;stroke:none"
     id="path1-5" /><path
     fill="none"
     d="m -188.58793,71.409091 h 128 V 199.40909 h -128 z"
     style="fill:#ffffff;fill-opacity:0;stroke:none"
     id="path1-6-2" /><path
     d="m 40.751973,65.894882 h 63.751657 c 6.93201,0 12.5499,5.463464 12.5499,12.202799 v 0.554894 c 0,6.740292 -5.61887,12.202798 -12.54891,12.202798 H 40.750979 c -6.93103,0 -12.549901,-5.463463 -12.549901,-12.201841 v -0.555851 c 0,-6.739335 5.618871,-12.202799 12.548916,-12.202799 z m 0,0"
     style="fill:#000000;fill-opacity:1;fill-rule:nonzero;stroke:#ffffff;stroke-width:3.89296;stroke-linecap:round;stroke-linejoin:round;stroke-miterlimit:4;stroke-opacity:1"
     id="path2-2" /><path
     d="m 45.969994,78.367452 a 4.9316949,4.7952942 0 0 1 -4.932688,4.796246 4.9297202,4.7933742 0 0 1 -4.932679,-4.796246 4.9326836,4.7962557 0 1 1 9.865367,0 m 15.797213,0 a 4.9297202,4.7933742 0 0 1 -4.932679,4.796246 4.9326822,4.7962543 0 1 1 0,-9.592501 4.9316949,4.7952942 0 0 1 4.932679,4.796255 m 15.801173,0 a 4.9316949,4.7952942 0 0 1 -4.932682,4.796246 4.9297202,4.7933742 0 0 1 -4.932679,-4.796246 4.9326823,4.7962543 0 1 1 9.865361,0 m 15.793271,0 a 4.9326822,4.7962543 0 0 1 -4.936631,4.796246 4.9326822,4.7962543 0 1 1 0,-9.592501 c 2.726996,0 4.936631,2.148517 4.936631,4.796255 m 0,0"
     style="fill:#333333;fill-opacity:1;fill-rule:nonzero;stroke:none;stroke-width:0.973572"
     id="path3-3" /><path
     d="m 109.15887,78.367452 a 4.9321895,4.7957753 0 1 1 -9.864371,9.03e-4 4.9316958,4.7952952 0 0 1 9.863391,0 z m 0,0"
     style="fill:#ffff00;fill-opacity:1;fill-rule:nonzero;stroke:none;stroke-width:0.973572"
     id="path4-13" /><rect
     width="54.694195"
     height="25.218288"
     x="-90.893784"
     y="14.371596"
     fill="none"
     stroke="#000000"
     stroke-linecap="round"
     stroke-linejoin="round"
     stroke-width="7.64842"
     ry="12.32282"
     style="paint-order:markers stroke fill"
     id="rect4"
     transform="rotate(-90)" /><rect
     width="24.520802"
     height="102.80141"
     x="-90.893784"
     y="14.371596"
     fill="none"
     stroke="#000000"
     stroke-linecap="round"
     stroke-linejoin="round"
     stroke-width="7.64842"
     ry="14.544304"
     style="paint-order:markers stroke fill"
     id="rect5"
     transform="rotate(-90)" /><path
     stroke="#ffffff"
     stroke-linecap="round"
     stroke-linejoin="round"
     stroke-width="3.82421"
     d="m 14.371601,78.910814 a 12.292213,11.952235 0 0 0 12.315903,11.976239 h 0.586479 c 0.2488,0 0.498594,-0.01445 0.7553,-0.02881 0.29324,0.01445 0.58647,0.03549 0.89452,0.03549 H 102.6208 c 8.06448,0 14.5443,-5.474029 14.5443,-12.260404 0,-6.793094 -6.48674,-12.260395 -14.54331,-12.260395 H 39.574091 V 48.174817 A 12.282339,11.942634 0 0 0 27.258179,36.199581 h -0.57166 A 12.286289,11.946475 0 0 0 14.371601,48.174853 v 30.458523 z"
     style="paint-order:markers stroke fill"
     id="path5-2" /><ellipse
     cx="-48.453262"
     cy="26.980736"
     fill="#ff0"
     style="fill:#333333;fill-opacity:1;stroke-width:7.22882;paint-order:markers stroke fill"
     id="circle5"
     transform="rotate(-90)"
     rx="4.7117724"
     ry="4.8457975" /><ellipse
     cx="-78.633385"
     cy="26.980736"
     fill="#ff0"
     style="fill:#333333;fill-opacity:1;stroke-width:7.22882;paint-order:markers stroke fill"
     id="circle6-2"
     transform="rotate(-90)"
     rx="4.7117724"
     ry="4.8457975" /><ellipse
     cx="-78.633385"
     cy="42.500534"
     fill="#333333"
     style="fill:#333333;fill-opacity:1;stroke-width:7.22882;paint-order:markers stroke fill"
     id="circle7-1"
     transform="rotate(-90)"
     rx="4.7117724"
     ry="4.8457975" /><ellipse
     cx="-78.633385"
     cy="58.012409"
     fill="#333333"
     style="fill:#333333;fill-opacity:1;stroke-width:7.22882;paint-order:markers stroke fill"
     id="circle8-6"
     transform="rotate(-90)"
     rx="4.7117724"
     ry="4.8457975" /><ellipse
     cx="-78.633385"
     cy="73.532188"
     fill="#333333"
     style="fill:#333333;fill-opacity:1;stroke-width:7.22882;paint-order:markers stroke fill"
     id="circle9-8"
     transform="rotate(-90)"
     rx="4.7117724"
     ry="4.8457975" /><ellipse
     cx="-78.633385"
     cy="89.051979"
     fill="#333333"
     style="fill:#333333;fill-opacity:1;stroke-width:7.22882;paint-order:markers stroke fill"
     id="circle10-5"
     transform="rotate(-90)"
     rx="4.7117724"
     ry="4.8457975" /><ellipse
     cx="-78.633385"
     cy="104.56386"
     fill="#333333"
     style="fill:#333333;fill-opacity:1;stroke-width:7.22882;paint-order:markers stroke fill"
     id="circle11-7"
     transform="rotate(-90)"
     rx="4.7117724"
     ry="4.8457975" /><path
     d="m 141.39871,11.917442 a 4.9965,4.9965 0 1 1 9.99298,-10e-4 4.9965,4.9965 0 0 1 -9.99298,10e-4 m 0,0"
     style="fill:#000000;fill-opacity:1;fill-rule:nonzero;stroke:#333333;stroke-width:0.3;stroke-dasharray:none;stroke-opacity:1"
     id="cache-8-9"
     inkscape:label="Gris" /><path
     d="m 37.383312,78.623727 a 4.9965,4.9965 0 1 1 9.99298,-0.001 4.9965,4.9965 0 0 1 -9.99298,0.001 m 0,0"
     style="fill:#000000;fill-opacity:1;fill-rule:nonzero;stroke:#333333;stroke-width:0.3;stroke-dasharray:none;stroke-opacity:1"
     id="cache-8-9-1"
     inkscape:label="Gris" /><path
     d="m 52.940821,78.861951 a 4.9965,4.9965 0 1 1 9.99298,-0.001 4.9965,4.9965 0 0 1 -9.99298,0.001 m 0,0"
     style="fill:#000000;fill-opacity:1;fill-rule:nonzero;stroke:#333333;stroke-width:0.3;stroke-dasharray:none;stroke-opacity:1"
     id="cache-8-9-1-9"
     inkscape:label="Gris" /></svg>
